<svg width="16" height="10" viewBox="0 0 16 10" fill="none" xmlns="http://www.w3.org/2000/svg">
<path d="M5.41668 1.33351C5.42148 1.51116 5.38479 1.68784 5.30878 1.85317C5.23277 2.01849 5.11897 2.16913 4.97406 2.29622C4.82915 2.42332 4.65606 2.52431 4.46496 2.59326C4.27386 2.66221 4.0686 2.69773 3.86126 2.69773C3.65391 2.69773 3.44866 2.66221 3.25756 2.59326C3.06646 2.52431 2.89337 2.42332 2.74846 2.29622C2.60355 2.16913 2.48974 2.01849 2.41373 1.85317C2.33772 1.68784 2.30104 1.51116 2.30584 1.33351C2.31252 0.98371 2.47935 0.65017 2.77036 0.404822C3.06137 0.159473 3.45324 0.0219727 3.86147 0.0219727C4.26969 0.0219727 4.66156 0.159473 4.95257 0.404822C5.24358 0.65017 5.41041 0.98371 5.4171 1.33351H5.41668Z" fill="white"/>
<path fill-rule="evenodd" clip-rule="evenodd" d="M2.04001 5.71169C1.92287 5.87231 1.73608 5.98647 1.52072 6.02906C1.30537 6.07165 1.07909 6.03918 0.891672 5.9388C0.704252 5.83841 0.571041 5.67833 0.521344 5.49377C0.471646 5.30921 0.509534 5.11529 0.626672 4.95467L0.628338 4.95252L0.631255 4.94859L0.641255 4.93503C0.694109 4.86363 0.748423 4.79303 0.804172 4.72327C0.939315 4.55245 1.08135 4.38571 1.23001 4.22335C1.39626 4.04338 1.60042 3.8402 1.81626 3.67523C1.92418 3.59274 2.05418 3.5049 2.20126 3.43419C2.33959 3.36777 2.55584 3.28564 2.82043 3.28564H4.9021C5.16668 3.28564 5.38293 3.36777 5.52168 3.43419C5.66835 3.5049 5.79877 3.59274 5.90627 3.67523C6.1221 3.8402 6.32669 4.04338 6.49252 4.22371C6.70235 4.45234 6.89885 4.68974 7.08127 4.93503L7.09169 4.94859L7.09461 4.95217L7.09586 4.95431C7.20978 5.11482 7.24532 5.30733 7.19478 5.49014C7.14423 5.67295 7.01166 5.83132 6.82581 5.93095C6.63995 6.03058 6.41577 6.06343 6.20185 6.02239C5.98793 5.98134 5.80149 5.86972 5.68293 5.71169L5.68169 5.71026L5.67502 5.70133C5.6542 5.6732 5.63309 5.64523 5.61168 5.61742V6.50442L5.91294 9.21649C5.93188 9.40136 5.86611 9.58528 5.72956 9.72931C5.59301 9.87334 5.3964 9.96616 5.18138 9.98812C4.96636 10.0101 4.74981 9.95944 4.5776 9.84693C4.40539 9.73443 4.29104 9.5689 4.25876 9.38539L3.83335 6.8358L3.40835 9.38539C3.37792 9.57031 3.26418 9.73765 3.09152 9.85157C2.91885 9.96548 2.70099 10.0169 2.48461 9.99482C2.26824 9.97273 2.07056 9.87889 1.93395 9.7334C1.79734 9.58791 1.73265 9.40236 1.75376 9.21649L2.10376 6.07056H2.11126V5.61706C2.08976 5.64501 2.06851 5.6731 2.04751 5.70133L2.04126 5.71026L2.04001 5.71169Z" fill="white"/>
<path d="M13.7501 1.33318C13.7501 1.68676 13.5862 2.02586 13.2944 2.27588C13.0027 2.5259 12.607 2.66636 12.1944 2.66636C11.7818 2.66636 11.3862 2.5259 11.0944 2.27588C10.8027 2.02586 10.6388 1.68676 10.6388 1.33318C10.6388 0.9796 10.8027 0.6405 11.0944 0.39048C11.3862 0.14046 11.7818 0 12.1944 0C12.607 0 13.0027 0.14046 13.2944 0.39048C13.5862 0.6405 13.7501 0.9796 13.7501 1.33318Z" fill="white"/>
<path fill-rule="evenodd" clip-rule="evenodd" d="M10.3754 5.6367C10.2575 5.79465 10.0719 5.90654 9.85856 5.9482C9.64524 5.98986 9.42135 5.95794 9.23525 5.85935C9.04914 5.76076 8.91575 5.60339 8.86386 5.42123C8.81198 5.23907 8.84576 5.04674 8.95793 4.88574L8.95918 4.8836L8.96252 4.87967L8.9721 4.8661L9.00752 4.81826C9.1784 4.59031 9.36094 4.36894 9.5546 4.15479C9.71877 3.97482 9.92127 3.77128 10.1346 3.60595C10.2417 3.52346 10.3709 3.4349 10.5171 3.3642C10.6546 3.29707 10.8713 3.21387 11.1371 3.21387H13.1963C13.4621 3.21387 13.6788 3.29707 13.8167 3.36384C13.9625 3.43526 14.0917 3.52346 14.1988 3.60595C14.4125 3.77128 14.6146 3.97482 14.7788 4.15479C14.9864 4.38345 15.1808 4.62072 15.3613 4.86575L15.3713 4.87967L15.3754 4.88574C15.4917 5.04684 15.5285 5.24091 15.4778 5.42527C15.4271 5.60963 15.293 5.76917 15.105 5.8688C14.9171 5.96843 14.6906 5.99999 14.4755 5.95653C14.2604 5.91306 14.0742 5.79815 13.9579 5.63705L13.9567 5.63527L13.9504 5.62634C13.8878 5.54172 13.8232 5.45814 13.7567 5.37567C13.9517 6.20768 14.3359 7.34892 14.5367 7.92597C14.5534 7.97283 14.5587 8.02216 14.552 8.07084C14.5454 8.11951 14.5271 8.16648 14.4982 8.20877C14.4693 8.25106 14.4304 8.28774 14.3841 8.31651C14.3378 8.34528 14.2851 8.36551 14.2292 8.3759C12.7554 8.63908 11.7238 8.63229 10.1234 8.37091C10.0659 8.36122 10.0115 8.34126 9.9637 8.31233C9.91588 8.2834 9.87572 8.24615 9.84583 8.20302C9.81595 8.15988 9.79702 8.11183 9.79027 8.062C9.78352 8.01217 9.78912 7.96169 9.80668 7.91383C10.0171 7.33393 10.4084 6.20482 10.5938 5.35424C10.5215 5.44377 10.4512 5.53449 10.3829 5.62634L10.3767 5.63527L10.3754 5.6367ZM10.3334 8.98152V9.46287C10.3335 9.59267 10.3887 9.718 10.4885 9.81557C10.5884 9.91314 10.7262 9.97631 10.8764 9.99333C11.0265 10.0104 11.1788 9.98007 11.3048 9.90812C11.4309 9.83617 11.5222 9.72743 11.5617 9.60214L11.7263 9.07936C11.2605 9.06518 10.7957 9.03253 10.3334 8.98152ZM12.6896 9.07794L12.855 9.60249C12.8946 9.72782 12.9859 9.83657 13.112 9.90853C13.2381 9.98048 13.3904 10.0107 13.5405 9.99366C13.6907 9.97659 13.8285 9.91336 13.9284 9.81573C14.0282 9.71809 14.0833 9.5927 14.0834 9.46287V8.97652C13.6208 9.02793 13.1557 9.062 12.6896 9.07794Z" fill="white"/>
</svg>
