<svg width="77" height="34" viewBox="0 0 77 34" fill="none" xmlns="http://www.w3.org/2000/svg">
<mask id="mask0_72_1289" style="mask-type:luminance" maskUnits="userSpaceOnUse" x="6" y="0" width="71" height="12">
<path d="M76.6684 0.32251H6.71484V11.7312H76.6684V0.32251Z" fill="white"/>
</mask>
<g mask="url(#mask0_72_1289)">
<mask id="mask1_72_1289" style="mask-type:luminance" maskUnits="userSpaceOnUse" x="27" y="0" width="32" height="23">
<path d="M27.4834 0.651001H58.9003V22.6216H27.4834V0.651001ZM43.0149 5.64246C41.8837 6.571 40.5424 7.28313 39.2865 8.03115C37.6728 8.9924 36.0557 9.97324 34.4866 11.0058L34.4885 11.0435C35.1956 11.5727 35.983 12.0243 36.7333 12.4909C38.1099 13.3469 39.5006 14.1817 40.8729 15.0442C41.3393 15.3374 41.813 15.6233 42.2691 15.9321C42.4162 16.0317 42.5686 16.1288 42.7083 16.2385C42.828 16.3323 42.9479 16.4746 43.0945 16.513L43.1597 16.4788L51.7421 10.9251C49.2285 9.332 46.6379 7.86387 44.1032 6.30601C43.8598 6.15646 43.6306 5.9872 43.4018 5.8162C43.3433 5.77243 43.2014 5.63776 43.1395 5.62036C43.0989 5.60887 43.0563 5.63503 43.0149 5.64246Z" fill="white"/>
</mask>
<g mask="url(#mask1_72_1289)">
<path d="M42.8741 1.20704C43.1148 1.18286 43.4087 1.20989 43.6456 1.25595C44.471 1.41667 45.1954 1.7695 45.9347 2.15878C47.756 3.11751 49.4488 4.30065 51.201 5.37404C52.4237 6.12305 53.6216 6.90465 54.834 7.66952C55.5514 8.12214 56.3044 8.545 56.9967 9.0335C57.3144 9.25757 57.6471 9.53054 57.8916 9.83469C58.2553 10.2869 58.4093 10.8752 58.3348 11.4487L58.3239 11.5299L58.2915 11.7472C58.181 12.2768 57.7635 12.7642 57.3649 13.1095C56.7427 13.6486 56.0284 14.0657 55.3242 14.4861C54.7179 14.8482 54.1195 15.2204 53.5215 15.596C52.6345 16.1531 51.7384 16.7025 50.8571 17.2681C50.2905 17.6317 49.7369 18.0169 49.1624 18.3681C47.2628 19.5296 45.3187 20.6328 43.466 21.8682L43.1366 22.0745C41.601 21.1352 40.0921 20.1414 38.5654 19.1859C37.7135 18.6526 36.8344 18.1629 35.9778 17.6372C35.0087 17.0426 34.0647 16.4099 33.1047 15.801C32.1545 15.1983 31.1781 14.6394 30.2304 14.0315C29.8245 13.771 29.3996 13.528 29.0225 13.2257C28.4698 12.7826 28.1184 12.245 28.0498 11.5288C27.974 10.7377 28.1092 10.1609 28.6221 9.55209C28.8066 9.33306 29.0281 9.15133 29.2623 8.98788C29.9925 8.47837 30.7732 8.03231 31.5317 7.56646C32.7321 6.82938 33.9327 6.08311 35.1246 5.33236C36.3512 4.55961 37.5628 3.76532 38.7948 3.00056C39.339 2.66282 39.8723 2.29477 40.443 2.00232C41.2162 1.60616 42.0016 1.28286 42.8741 1.20704Z" fill="url(#paint0_linear_72_1289)"/>
</g>
</g>
<mask id="mask2_72_1289" style="mask-type:luminance" maskUnits="userSpaceOnUse" x="16" y="0" width="32" height="23">
<path d="M16.0986 0.571899H47.5155V22.5425H16.0986V0.571899ZM31.6301 5.56336C30.4989 6.4919 29.1576 7.20403 27.9018 7.95205C26.288 8.9133 24.671 9.89414 23.1018 10.9267L23.1037 10.9644C23.8108 11.4936 24.5982 11.9452 25.3486 12.4118C26.7251 13.2678 28.1158 14.1026 29.4881 14.9651C29.9545 15.2583 30.4282 15.5442 30.8844 15.853C31.0314 15.9526 31.1838 16.0497 31.3235 16.1594C31.4432 16.2532 31.5631 16.3955 31.7097 16.4339L31.7749 16.3997L40.3573 10.846C37.8438 9.2529 35.2531 7.78477 32.7185 6.22691C32.475 6.07735 32.2458 5.9081 32.0171 5.7371C31.9585 5.69333 31.8166 5.55866 31.7547 5.54125C31.7141 5.52977 31.6715 5.55593 31.6301 5.56336Z" fill="white"/>
</mask>
<g mask="url(#mask2_72_1289)">
<path d="M31.4893 1.12782C31.73 1.10364 32.0239 1.13066 32.2609 1.17672C33.0862 1.33744 33.8106 1.69028 34.5499 2.07955C36.3712 3.03829 38.0641 4.22142 39.8162 5.29482C41.039 6.04382 42.2369 6.82543 43.4492 7.5903C44.1666 8.04291 44.9196 8.46578 45.612 8.95428C45.9296 9.17835 46.2623 9.45132 46.5068 9.75547C46.8705 10.2077 47.0245 10.7959 46.95 11.3694L46.9391 11.4506L46.9067 11.668C46.7962 12.1976 46.3787 12.685 45.9801 13.0303C45.3579 13.5694 44.6436 13.9865 43.9395 14.4069C43.3331 14.769 42.7348 15.1412 42.1368 15.5168C41.2497 16.0739 40.3536 16.6233 39.4724 17.1888C38.9057 17.5525 38.3521 17.9377 37.7776 18.2889C35.878 19.4504 33.9339 20.5535 32.0812 21.789L31.7518 21.9953C30.2163 21.0559 28.7073 20.0622 27.1806 19.1066C26.3287 18.5734 25.4496 18.0837 24.5931 17.558C23.6239 16.9633 22.68 16.3306 21.7199 15.7218C20.7697 15.1191 19.7934 14.5602 18.8457 13.9522C18.4398 13.6917 18.0148 13.4487 17.6377 13.1464C17.0851 12.7033 16.7337 12.1658 16.6651 11.4495C16.5892 10.6585 16.7245 10.0817 17.2374 9.47287C17.4218 9.25384 17.6434 9.07211 17.8775 8.90865C18.6077 8.39914 19.3884 7.95309 20.147 7.48723C21.3474 6.75015 22.5479 6.00389 23.7398 5.25313C24.9665 4.48039 26.178 3.68609 27.4101 2.92133C27.9543 2.58359 28.4875 2.21555 29.0582 1.9231C29.8315 1.52694 30.6168 1.20364 31.4893 1.12782Z" fill="url(#paint1_linear_72_1289)"/>
</g>
<mask id="mask3_72_1289" style="mask-type:luminance" maskUnits="userSpaceOnUse" x="20" y="10" width="49" height="14">
<path d="M68.2615 10.5546H20.8252V23.9148H68.2615V10.5546Z" fill="white"/>
</mask>
<g mask="url(#mask3_72_1289)">
<mask id="mask4_72_1289" style="mask-type:luminance" maskUnits="userSpaceOnUse" x="27" y="0" width="32" height="23">
<path d="M27.4824 0.525269H58.8993V22.4959H27.4824V0.525269ZM43.0139 5.51673C41.8827 6.44527 40.5414 7.1574 39.2855 7.90542C37.6718 8.86667 36.0547 9.84751 34.4856 10.8801L34.4875 10.9177C35.1946 11.4469 35.982 11.8986 36.7324 12.3652C38.1089 13.2212 39.4996 14.056 40.8719 14.9184C41.3383 15.2116 41.812 15.4975 42.2682 15.8064C42.4152 15.9059 42.5676 16.0031 42.7073 16.1127C42.827 16.2066 42.9469 16.3488 43.0935 16.3872L43.1587 16.3531L51.7411 10.7994C49.2276 9.20627 46.6369 7.73813 44.1023 6.18028C43.8588 6.03072 43.6296 5.86147 43.4008 5.69046C43.3423 5.6467 43.2004 5.51203 43.1385 5.49462C43.0979 5.48314 43.0553 5.5093 43.0139 5.51673Z" fill="white"/>
</mask>
<g mask="url(#mask4_72_1289)">
<path d="M42.8731 1.08119C43.1138 1.05701 43.4077 1.08403 43.6447 1.13009C44.47 1.29081 45.1944 1.64365 45.9337 2.03292C47.755 2.99166 49.4479 4.17479 51.2 5.24819C52.4228 5.99719 53.6207 6.7788 54.833 7.54367C55.5504 7.99628 56.3034 8.41915 56.9958 8.90765C57.3134 9.13172 57.6461 9.40469 57.8906 9.70884C58.2543 10.161 58.4083 10.7493 58.3338 11.3228L58.3229 11.404L58.2905 11.6214C58.18 12.1509 57.7625 12.6383 57.3639 12.9836C56.7417 13.5228 56.0274 13.9398 55.3233 14.3603C54.7169 14.7223 54.1186 15.0945 53.5206 15.4701C52.6335 16.0272 51.7374 16.5767 50.8562 17.1422C50.2895 17.5059 49.7359 17.8911 49.1614 18.2423C47.2618 19.4038 45.3177 20.5069 43.465 21.7423L43.1356 21.9487C41.6001 21.0093 40.0911 20.0156 38.5644 19.06C37.7125 18.5267 36.8334 18.037 35.9768 17.5113C35.0077 16.9167 34.0637 16.284 33.1037 15.6752C32.1535 15.0724 31.1771 14.5136 30.2295 13.9056C29.8236 13.6451 29.3986 13.4021 29.0215 13.0998C28.4689 12.6567 28.1174 12.1192 28.0489 11.4029C27.973 10.6119 28.1083 10.0351 28.6212 9.42624C28.8056 9.20721 29.0272 9.02548 29.2613 8.86202C29.9915 8.35251 30.7722 7.90646 31.5307 7.4406C32.7312 6.70352 33.9317 5.95726 35.1236 5.2065C36.3503 4.43376 37.5618 3.63946 38.7939 2.8747C39.3381 2.53696 39.8713 2.16892 40.442 1.87647C41.2153 1.48031 42.0006 1.15701 42.8731 1.08119Z" fill="url(#paint2_linear_72_1289)"/>
</g>
</g>
<path d="M2.6403 11.3665C37.239 29.0848 2.67631 11.5523 37.2301 29.1713C72.3947 10.6889 37.3831 29.118 72.3718 10.8002C73.855 13.2117 69.9834 14.7389 67.4962 16.0016C36.4996 31.2959 66.544 16.25 37.08 31.4947C7.4286 16.7253 36.9574 31.4936 7.54062 16.7492C2.31701 13.9326 1.12423 12.9588 2.6403 11.3665Z" fill="#FF8A65" stroke="black" stroke-width="0.0109038"/>
<path d="M1.51941 12.2728C37.2374 29.9909 1.55653 12.4585 37.2282 30.0773C73.5304 11.5952 37.3861 30.0241 73.5068 11.7064C75.0379 14.118 70.9718 15.9557 68.4042 17.2184C36.4049 32.5126 55.9269 23.0571 37.0733 32.4008C6.4626 17.6316 36.9467 32.3993 6.57826 17.6554C1.18565 14.8388 -0.0457058 13.8651 1.51941 12.2728Z" fill="#FF8A65" stroke="black" stroke-width="0.0110787"/>
<path d="M0.556474 12.5742L37.2231 31.3969C72.9095 13.1818 72.6993 12.036 74.8244 12.4397C77.6856 14.768 44.6222 27.7885 37.3251 33.6774C27.3265 26.8608 -4.58432 14.7014 0.556474 12.5742Z" fill="#009688"/>
<defs>
<linearGradient id="paint0_linear_72_1289" x1="57.9505" y1="13.6254" x2="28.2683" y2="9.56391" gradientUnits="userSpaceOnUse">
<stop stop-color="#009688"/>
<stop offset="1" stop-color="#F9D1E3"/>
</linearGradient>
<linearGradient id="paint1_linear_72_1289" x1="46.5657" y1="13.5462" x2="16.8835" y2="9.48469" gradientUnits="userSpaceOnUse">
<stop stop-color="#009688"/>
<stop offset="1" stop-color="#F9D1E3"/>
</linearGradient>
<linearGradient id="paint2_linear_72_1289" x1="57.9495" y1="13.4996" x2="28.2673" y2="9.43805" gradientUnits="userSpaceOnUse">
<stop stop-color="#009688"/>
<stop offset="1" stop-color="#F9D1E3"/>
</linearGradient>
</defs>
</svg>
