<svg width="154" height="67" viewBox="0 0 154 67" fill="none" xmlns="http://www.w3.org/2000/svg">
<mask id="mask0_124_1011" style="mask-type:luminance" maskUnits="userSpaceOnUse" x="13" y="0" width="141" height="23">
<path d="M153.67 0H13.7607V22.8141H153.67V0Z" fill="white"/>
</mask>
<g mask="url(#mask0_124_1011)">
<mask id="mask1_124_1011" style="mask-type:luminance" maskUnits="userSpaceOnUse" x="55" y="0" width="64" height="45">
<path d="M55.2988 0.65686H118.134V44.5915H55.2988V0.65686ZM86.3623 10.6383C84.0999 12.4951 81.4173 13.9191 78.9055 15.415C75.6779 17.3372 72.4438 19.2986 69.3055 21.3634L69.3093 21.4387C70.7235 22.4969 72.2984 23.4001 73.799 24.3332C76.5522 26.0449 79.3336 27.7142 82.0783 29.4389C83.0111 30.0252 83.9586 30.5969 84.8708 31.2145C85.1649 31.4136 85.4697 31.6079 85.7492 31.8271C85.9886 32.0149 86.2284 32.2993 86.5216 32.3761L86.652 32.3078L103.817 21.202C98.7899 18.0163 93.6085 15.0804 88.5391 11.9652C88.0522 11.6661 87.5938 11.3277 87.1363 10.9857C87.0192 10.8982 86.7354 10.6289 86.6115 10.5941C86.5304 10.5711 86.4452 10.6234 86.3623 10.6383Z" fill="white"/>
</mask>
<g mask="url(#mask1_124_1011)">
<path d="M86.0808 1.76881C86.5622 1.72046 87.1499 1.7745 87.6239 1.86661C89.2747 2.188 90.7235 2.89358 92.202 3.672C95.8447 5.58919 99.2305 7.9551 102.735 10.1016C105.18 11.5994 107.576 13.1623 110.001 14.6918C111.436 15.597 112.942 16.4425 114.327 17.4194C114.962 17.8675 115.627 18.4133 116.116 19.0216C116.844 19.9258 117.152 21.1022 117.003 22.249L116.981 22.4114L116.916 22.8461C116.695 23.905 115.86 24.8797 115.063 25.5701C113.818 26.6483 112.39 27.4823 110.982 28.3231C109.769 29.047 108.572 29.7913 107.376 30.5424C105.602 31.6564 103.81 32.7552 102.047 33.8861C100.914 34.6133 99.8066 35.3836 98.6576 36.0859C94.8583 38.4085 90.9701 40.6145 87.2646 43.085L86.6057 43.4976C83.5346 41.6191 80.5166 39.6319 77.4632 37.7211C75.7593 36.6547 74.0011 35.6755 72.288 34.6242C70.3497 33.4351 68.4617 32.1699 66.5416 30.9524C64.6411 29.7471 62.6884 28.6296 60.793 27.4138C59.9812 26.8929 59.1313 26.407 58.377 25.8025C57.2717 24.9164 56.5689 23.8415 56.4317 22.4092C56.28 20.8274 56.5505 19.674 57.5763 18.4564C57.9453 18.0184 58.3884 17.655 58.8566 17.3282C60.317 16.3093 61.8785 15.4173 63.3956 14.4858C65.7965 13.0118 68.1976 11.5195 70.5814 10.0182C73.0348 8.47296 75.458 6.8846 77.9221 5.35531C79.0105 4.67993 80.077 3.94395 81.2184 3.35915C82.765 2.56693 84.3357 1.92043 86.0808 1.76881Z" fill="url(#paint0_linear_124_1011)"/>
</g>
</g>
<mask id="mask2_124_1011" style="mask-type:luminance" maskUnits="userSpaceOnUse" x="32" y="0" width="64" height="45">
<path d="M32.5273 0.498657H95.3623V44.4333H32.5273V0.498657ZM63.5908 10.4801C61.3284 12.3369 58.6458 13.7609 56.134 15.2568C52.9064 17.179 49.6723 19.1404 46.534 21.2052L46.5378 21.2805C47.952 22.3387 49.5269 23.2419 51.0275 24.175C53.7807 25.8867 56.5621 27.556 59.3068 29.2807C60.2396 29.867 61.1871 30.4387 62.0993 31.0563C62.3934 31.2554 62.6983 31.4497 62.9777 31.6689C63.2171 31.8566 63.4569 32.1411 63.7501 32.2179L63.8805 32.1496L81.0456 21.0438C76.0184 17.8581 70.837 14.9222 65.7676 11.807C65.2808 11.5079 64.8223 11.1695 64.3648 10.8275C64.2477 10.74 63.9639 10.4707 63.84 10.4359C63.7589 10.4129 63.6738 10.4652 63.5908 10.4801Z" fill="white"/>
</mask>
<g mask="url(#mask2_124_1011)">
<path d="M63.3093 1.61037C63.7907 1.56202 64.3784 1.61606 64.8524 1.70816C66.5032 2.02956 67.952 2.73513 69.4305 3.51356C73.0732 5.43074 76.459 7.79666 79.9634 9.94313C82.4089 11.4409 84.8048 13.0039 87.2295 14.5334C88.6643 15.4385 90.1704 16.2841 91.5551 17.261C92.1903 17.709 92.8558 18.2549 93.3448 18.8631C94.0722 19.7673 94.3803 20.9437 94.2313 22.0906L94.2094 22.2529L94.1446 22.6876C93.9236 23.7465 93.0886 24.7212 92.2914 25.4117C91.047 26.4899 89.6183 27.3239 88.21 28.1646C86.9973 28.8886 85.8006 29.6329 84.6045 30.384C82.8304 31.498 81.0382 32.5967 79.2756 33.7276C78.1424 34.4548 77.0352 35.2252 75.8861 35.9275C72.0868 38.2501 68.1986 40.456 64.4931 42.9265L63.8342 43.3392C60.7631 41.4607 57.7452 39.4735 54.6918 37.5626C52.9878 36.4963 51.2296 35.517 49.5165 34.4658C47.5782 33.2767 45.6902 32.0115 43.7701 30.794C41.8696 29.5887 39.9169 28.4711 38.0215 27.2554C37.2097 26.7345 36.3598 26.2485 35.6055 25.644C34.5003 24.758 33.7974 23.6831 33.6602 22.2507C33.5086 20.6689 33.779 19.5155 34.8048 18.298C35.1738 17.86 35.6169 17.4966 36.0852 17.1697C37.5456 16.1509 39.107 15.2589 40.6241 14.3273C43.025 12.8534 45.4261 11.3611 47.8099 9.85977C50.2633 8.31452 52.6865 6.72615 55.1506 5.19687C56.239 4.52149 57.3056 3.7855 58.4469 3.2007C59.9935 2.40849 61.5642 1.76198 63.3093 1.61037Z" fill="url(#paint1_linear_124_1011)"/>
</g>
<mask id="mask3_124_1011" style="mask-type:luminance" maskUnits="userSpaceOnUse" x="41" y="20" width="96" height="28">
<path d="M136.856 20.4611H41.9814V47.1775H136.856V20.4611Z" fill="white"/>
</mask>
<g mask="url(#mask3_124_1011)">
<mask id="mask4_124_1011" style="mask-type:luminance" maskUnits="userSpaceOnUse" x="55" y="0" width="64" height="45">
<path d="M55.2959 0.405518H118.131V44.3402H55.2959V0.405518ZM86.3594 10.3869C84.097 12.2438 81.4144 13.6678 78.9026 15.1636C75.675 17.0858 72.4408 19.0472 69.3025 21.1121L69.3064 21.1873C70.7206 22.2456 72.2954 23.1487 73.7961 24.0818C76.5493 25.7936 79.3307 27.4629 82.0753 29.1876C83.0082 29.7739 83.9556 30.3456 84.8679 30.9632C85.162 31.1623 85.4668 31.3566 85.7462 31.5758C85.9856 31.7635 86.2255 32.0479 86.5187 32.1247L86.6491 32.0565L103.814 20.9506C98.787 17.7649 93.6056 14.8291 88.5362 11.7139C88.0493 11.4148 87.5909 11.0763 87.1333 10.7344C87.0163 10.6469 86.7325 10.3776 86.6086 10.3427C86.5274 10.3198 86.4423 10.3721 86.3594 10.3869Z" fill="white"/>
</mask>
<g mask="url(#mask4_124_1011)">
<path d="M86.0779 1.51711C86.5593 1.46875 87.147 1.5228 87.621 1.6149C89.2717 1.93629 90.7205 2.64187 92.1991 3.42029C95.8418 5.33748 99.2276 7.7034 102.732 9.84987C105.177 11.3477 107.573 12.9106 109.998 14.4401C111.433 15.3452 112.939 16.1908 114.324 17.1677C114.959 17.6158 115.624 18.1616 116.113 18.7698C116.841 19.6741 117.149 20.8505 117 21.9973L116.978 22.1597L116.913 22.5944C116.692 23.6533 115.857 24.628 115.06 25.3184C113.816 26.3966 112.387 27.2306 110.979 28.0714C109.766 28.7953 108.569 29.5396 107.373 30.2907C105.599 31.4047 103.807 32.5035 102.044 33.6343C100.911 34.3616 99.8037 35.1319 98.6547 35.8342C94.8553 38.1568 90.9671 40.3628 87.2617 42.8333L86.6028 43.2459C83.5317 41.3674 80.5137 39.3802 77.4603 37.4694C75.7564 36.403 73.9982 35.4238 72.285 34.3725C70.3467 33.1834 68.4588 31.9182 66.5386 30.7007C64.6382 29.4954 62.6854 28.3779 60.79 27.1621C59.9782 26.6412 59.1283 26.1553 58.3741 25.5508C57.2688 24.6647 56.566 23.5898 56.4288 22.1575C56.2771 20.5757 56.5476 19.4223 57.5734 18.2047C57.9423 17.7667 58.3854 17.4033 58.8537 17.0765C60.3141 16.0576 61.8756 15.1656 63.3927 14.234C65.7935 12.7601 68.1947 11.2678 70.5785 9.76651C73.0319 8.22125 75.4551 6.63289 77.9192 5.1036C79.0076 4.42822 80.0741 3.69224 81.2155 3.10744C82.7621 2.31523 84.3328 1.66872 86.0779 1.51711Z" fill="url(#paint2_linear_124_1011)"/>
</g>
</g>
<path d="M5.6107 22.0848C74.8095 57.5161 5.68272 22.4563 74.7915 57.689C145.122 20.7298 75.0976 57.5825 145.076 20.9523C148.043 25.7747 140.299 28.8285 135.325 31.3536C73.3306 61.9377 133.421 31.8504 74.4915 62.3352C15.1875 32.8008 74.2462 62.3329 15.4115 32.8485C4.9641 27.2162 2.57851 25.269 5.6107 22.0848Z" fill="#FF8A65" stroke="black" stroke-width="0.0109038"/>
<path d="M3.36892 23.897C74.8063 59.3278 3.44317 24.2684 74.7878 59.5008C147.394 22.5419 75.1037 59.3943 147.346 22.7644C150.409 27.5868 142.276 31.2617 137.141 33.7867C73.1411 64.3705 112.186 45.4625 74.478 64.1469C13.2555 34.6129 74.2248 64.1439 13.4868 34.6606C2.70139 29.0282 0.238632 27.0811 3.36892 23.897Z" fill="#FF8A65" stroke="black" stroke-width="0.0110787"/>
<path d="M1.44305 24.4997L74.7777 62.1395C146.152 25.7148 145.731 23.4235 149.982 24.2308C155.704 28.8868 89.5762 54.9239 74.9817 66.6999C54.9841 53.0687 -8.83872 28.7536 1.44305 24.4997Z" fill="#009688"/>
<defs>
<linearGradient id="paint0_linear_124_1011" x1="116.234" y1="26.6019" x2="56.869" y2="18.4774" gradientUnits="userSpaceOnUse">
<stop stop-color="#009688"/>
<stop offset="1" stop-color="#F9D1E3"/>
</linearGradient>
<linearGradient id="paint1_linear_124_1011" x1="93.4626" y1="26.4435" x2="34.0975" y2="18.3189" gradientUnits="userSpaceOnUse">
<stop stop-color="#009688"/>
<stop offset="1" stop-color="#F9D1E3"/>
</linearGradient>
<linearGradient id="paint2_linear_124_1011" x1="116.231" y1="26.3502" x2="56.8661" y2="18.2257" gradientUnits="userSpaceOnUse">
<stop stop-color="#009688"/>
<stop offset="1" stop-color="#F9D1E3"/>
</linearGradient>
</defs>
</svg>
