<svg width="15" height="18" viewBox="0 0 15 18" fill="none" xmlns="http://www.w3.org/2000/svg">
<g clip-path="url(#clip0_90_622)">
<path d="M1.71631 15.9675C1.71631 16.7644 2.3435 17.4109 3.11904 17.4109H12.0651C12.8393 17.4109 13.4679 16.7652 13.4679 15.9675V2.96143C13.4679 2.16455 12.839 1.51855 12.0651 1.51855H3.11904C2.34326 1.51855 1.71631 2.16429 1.71631 2.96143V15.9675Z" fill="#D0D1D2"/>
<path d="M1.71631 14.9502C1.71631 15.7471 2.3435 16.3936 3.11904 16.3936H12.0651C12.8393 16.3936 13.4679 15.7473 13.4679 14.9502V1.94385C13.4681 1.14698 12.8393 0.500977 12.0651 0.500977H3.11904C2.34326 0.500977 1.71631 1.14671 1.71631 1.94385V14.9502Z" fill="#E7E6E6"/>
<path d="M11.6998 3.9955H3.74088C3.20486 3.9955 3.20486 3.14258 3.74088 3.14258H11.6998C12.2342 3.14231 12.2342 3.9955 11.6998 3.9955ZM11.6998 5.72684H3.74088C3.20486 5.72684 3.20486 4.87445 3.74088 4.87445H11.6998C12.2342 4.87445 12.2342 5.72684 11.6998 5.72684ZM11.6998 7.4967H3.74088C3.20486 7.4967 3.20486 6.64378 3.74088 6.64378H11.6998C12.2342 6.64378 12.2342 7.4967 11.6998 7.4967ZM11.6998 9.22831H3.74088C3.20486 9.22831 3.20486 8.37512 3.74088 8.37512H11.6998C12.2342 8.37512 12.2342 9.22831 11.6998 9.22831ZM11.6998 12.5701H8.03627C7.5026 12.5701 7.5026 11.7172 8.03627 11.7172H11.6998C12.2342 11.7175 12.2342 12.5701 11.6998 12.5701Z" fill="#35494D"/>
</g>
<defs>
<clipPath id="clip0_90_622">
<rect width="15" height="17" fill="white" transform="translate(0 0.5)"/>
</clipPath>
</defs>
</svg>
