<svg width="16" height="12" viewBox="0 0 16 12" fill="none" xmlns="http://www.w3.org/2000/svg">
<path d="M13.9582 3.04916C13.9677 3.17785 13.9677 3.30657 13.9677 3.43527C13.9677 7.36053 10.8744 11.8834 5.22083 11.8834C3.47906 11.8834 1.86105 11.3961 0.5 10.5504C0.747472 10.578 0.985393 10.5872 1.24239 10.5872C2.67955 10.5872 4.00254 10.1184 5.05902 9.31861C3.70749 9.29102 2.57487 8.43611 2.18464 7.25943C2.37501 7.28699 2.56535 7.30538 2.76524 7.30538C3.04125 7.30538 3.31729 7.2686 3.57425 7.20428C2.16562 6.92848 1.10911 5.73344 1.10911 4.29018V4.25343C1.51836 4.47405 1.99429 4.61194 2.4987 4.63031C1.67065 4.09712 1.12816 3.18705 1.12816 2.15746C1.12816 1.60591 1.28041 1.10031 1.54693 0.659055C3.06026 2.46082 5.33503 3.63747 7.88577 3.76619C7.83819 3.54557 7.80963 3.31577 7.80963 3.08595C7.80963 1.44963 9.1802 0.116699 10.8839 0.116699C11.769 0.116699 12.5685 0.475214 13.1301 1.05436C13.8249 0.925663 14.4911 0.677448 15.0812 0.337326C14.8528 1.02679 14.3674 1.60594 13.7297 1.97362C14.3484 1.9093 14.948 1.7438 15.5 1.514C15.0813 2.10231 14.5578 2.62627 13.9582 3.04916V3.04916Z" fill="black"/>
</svg>
