<svg width="14" height="12" viewBox="0 0 14 12" fill="none" xmlns="http://www.w3.org/2000/svg">
<path d="M7.00176 2.97043C5.29819 2.97043 3.92408 4.32307 3.92408 6.00002C3.92408 7.67698 5.29819 9.02961 7.00176 9.02961C8.70533 9.02961 10.0794 7.67698 10.0794 6.00002C10.0794 4.32307 8.70533 2.97043 7.00176 2.97043ZM7.00176 7.96965C5.90087 7.96965 5.00087 7.08635 5.00087 6.00002C5.00087 4.9137 5.89819 4.0304 7.00176 4.0304C8.10533 4.0304 9.00265 4.9137 9.00265 6.00002C9.00265 7.08635 8.10265 7.96965 7.00176 7.96965V7.96965ZM10.9232 2.84651C10.9232 3.23938 10.6018 3.55315 10.2053 3.55315C9.80622 3.55315 9.48747 3.23674 9.48747 2.84651C9.48747 2.45627 9.8089 2.13987 10.2053 2.13987C10.6018 2.13987 10.9232 2.45627 10.9232 2.84651ZM12.9616 3.5637C12.916 2.61711 12.6964 1.77864 11.9919 1.08782C11.2902 0.396997 10.4384 0.180786 9.47676 0.133325C8.48569 0.0779541 5.51515 0.0779541 4.52408 0.133325C3.56515 0.178149 2.71337 0.39436 2.0089 1.08518C1.30444 1.776 1.08747 2.61448 1.03926 3.56106C0.983008 4.53665 0.983008 7.46077 1.03926 8.43635C1.08479 9.38293 1.30444 10.2214 2.0089 10.9122C2.71337 11.6031 3.56247 11.8193 4.52408 11.8667C5.51515 11.9221 8.48569 11.9221 9.47676 11.8667C10.4384 11.8219 11.2902 11.6057 11.9919 10.9122C12.6937 10.2214 12.9134 9.38293 12.9616 8.43635C13.0178 7.46077 13.0178 4.53928 12.9616 3.5637V3.5637ZM11.6812 9.48313C11.4723 9.99993 11.0678 10.3981 10.5402 10.6064C9.74997 10.9149 7.87497 10.8437 7.00176 10.8437C6.12854 10.8437 4.25087 10.9122 3.46337 10.6064C2.93837 10.4007 2.5339 10.0026 2.32229 9.48313C2.0089 8.7053 2.08122 6.85959 2.08122 6.00002C2.08122 5.14045 2.01158 3.29211 2.32229 2.51692C2.53122 2.00012 2.93569 1.60198 3.46337 1.39368C4.25354 1.08518 6.12854 1.15637 7.00176 1.15637C7.87497 1.15637 9.75265 1.08782 10.5402 1.39368C11.0652 1.59934 11.4696 1.99749 11.6812 2.51692C11.9946 3.29475 11.9223 5.14045 11.9223 6.00002C11.9223 6.85959 11.9946 8.70793 11.6812 9.48313Z" fill="black"/>
</svg>
