<svg width="50" height="51" viewBox="0 0 50 51" fill="none" xmlns="http://www.w3.org/2000/svg">
<path d="M21.875 34.875H28.125V41.125H21.875V34.875ZM34.375 13C35.2038 13 35.9987 13.3292 36.5847 13.9153C37.1708 14.5013 37.5 15.2962 37.5 16.125V25.5L28.125 31.75H21.875V28.625L31.25 22.375V19.25H15.625V13H34.375ZM25 5.1875C19.575 5.1875 14.4719 7.3 10.6375 11.1375C6.80313 14.975 4.6875 20.075 4.6875 25.5C4.6875 30.925 6.8 36.0281 10.6375 39.8625C14.475 43.6969 19.575 45.8125 25 45.8125C30.425 45.8125 35.5281 43.7 39.3625 39.8625C43.1969 36.025 45.3125 30.925 45.3125 25.5C45.3125 20.075 43.2 14.9719 39.3625 11.1375C35.525 7.30313 30.425 5.1875 25 5.1875ZM25 0.5C31.6304 0.5 37.9893 3.13392 42.6777 7.82233C47.3661 12.5107 50 18.8696 50 25.5C50 32.1304 47.3661 38.4893 42.6777 43.1777C37.9893 47.8661 31.6304 50.5 25 50.5C18.3696 50.5 12.0107 47.8661 7.32233 43.1777C2.63392 38.4893 0 32.1304 0 25.5C0 18.8696 2.63392 12.5107 7.32233 7.82233C12.0107 3.13392 18.3696 0.5 25 0.5Z" fill="url(#paint0_linear_90_449)" fill-opacity="0.7"/>
<defs>
<linearGradient id="paint0_linear_90_449" x1="5.5" y1="5.2066" x2="33.9315" y2="58.9937" gradientUnits="userSpaceOnUse">
<stop stop-color="#FF8A65"/>
<stop offset="1" stop-color="#009688"/>
</linearGradient>
</defs>
</svg>
