<svg width="16" height="12" viewBox="0 0 16 12" fill="none" xmlns="http://www.w3.org/2000/svg">
<path d="M15.1224 2.4617C14.9514 1.82734 14.4477 1.32773 13.808 1.15819C12.6487 0.850098 7.99974 0.850098 7.99974 0.850098C7.99974 0.850098 3.35083 0.850098 2.19143 1.15819C1.5518 1.32776 1.04804 1.82734 0.87706 2.4617C0.566406 3.61152 0.566406 6.01051 0.566406 6.01051C0.566406 6.01051 0.566406 8.40949 0.87706 9.55931C1.04804 10.1937 1.5518 10.6725 2.19143 10.842C3.35083 11.1501 7.99974 11.1501 7.99974 11.1501C7.99974 11.1501 12.6487 11.1501 13.808 10.842C14.4477 10.6725 14.9514 10.1937 15.1224 9.55931C15.4331 8.40949 15.4331 6.01051 15.4331 6.01051C15.4331 6.01051 15.4331 3.61152 15.1224 2.4617V2.4617ZM6.47927 8.18861V3.8324L10.3649 6.01056L6.47927 8.18861V8.18861Z" fill="black"/>
</svg>
